<?xml version="1.0" standalone="no"?>
<!DOCTYPE svg PUBLIC "-//W3C//DTD SVG 20010904//EN"
 "http://www.w3.org/TR/2001/REC-SVG-20010904/DTD/svg10.dtd">
<svg version="1.0" xmlns="http://www.w3.org/2000/svg"
 width="1000.000000pt" height="1000.000000pt" viewBox="0 0 1000.000000 1000.000000"
 preserveAspectRatio="xMidYMid meet">
<metadata>
Created by potrace 1.14, written by Peter Selinger 2001-2017
</metadata>
<g transform="translate(0.000000,1000.000000) scale(0.100000,-0.100000)"
fill="#000000" stroke="none">
<path d="M4738 9995 c-2 -1 -46 -6 -98 -10 -137 -10 -158 -11 -230 -19 -73 -8
-90 -11 -240 -36 -30 -5 -71 -11 -90 -14 -138 -21 -451 -103 -670 -176 -111
-37 -449 -168 -487 -189 -10 -6 -72 -37 -138 -69 -622 -307 -1179 -747 -1630
-1287 -326 -390 -606 -860 -789 -1320 -27 -66 -52 -129 -56 -140 -43 -103
-165 -514 -184 -615 -2 -14 -11 -56 -19 -95 -9 -38 -19 -88 -23 -110 -4 -22
-8 -47 -10 -55 -6 -34 -17 -106 -19 -125 -1 -11 -5 -36 -8 -55 -3 -19 -9 -62
-12 -95 -4 -33 -8 -71 -11 -85 -24 -147 -24 -947 0 -989 2 -3 6 -40 10 -81 3
-41 8 -84 10 -96 2 -12 7 -45 11 -75 3 -30 13 -85 20 -124 8 -38 17 -86 20
-105 3 -19 13 -64 21 -100 9 -36 17 -74 20 -85 7 -38 13 -60 39 -155 14 -52
27 -104 30 -114 13 -56 115 -341 168 -471 56 -138 207 -451 275 -570 137 -240
334 -524 510 -735 227 -273 564 -593 826 -787 56 -41 108 -80 116 -86 15 -12
206 -140 245 -164 150 -92 294 -171 450 -248 224 -110 268 -130 400 -179 55
-21 116 -44 135 -51 99 -39 488 -150 591 -168 13 -3 69 -14 124 -26 92 -18
262 -46 360 -57 22 -2 54 -6 70 -8 199 -27 846 -28 1030 -1 17 2 53 6 80 9
111 12 222 28 260 36 22 5 56 12 75 15 77 13 232 48 360 81 645 169 1251 470
1790 889 155 121 143 111 283 238 171 155 351 342 492 512 28 33 52 62 55 65
14 14 135 177 197 265 194 276 338 533 491 875 29 66 53 124 56 135 2 6 6 17
9 25 16 37 89 239 103 284 46 150 59 196 98 356 39 154 52 215 61 270 22 127
46 287 50 330 3 30 8 69 10 85 27 188 27 789 0 1015 -3 19 -7 57 -10 84 -3 28
-8 59 -10 70 -2 12 -7 44 -10 71 -9 72 -40 245 -65 355 -12 52 -23 100 -24
105 -1 6 -5 19 -9 30 -3 11 -8 31 -11 45 -8 42 -55 198 -97 325 -97 289 -235
598 -386 862 -43 76 -80 142 -82 148 -2 5 -8 14 -12 20 -5 5 -51 74 -102 151
-410 621 -977 1155 -1637 1543 -211 124 -520 273 -720 346 -41 15 -88 33 -105
40 -16 7 -55 20 -85 30 -30 10 -64 21 -75 25 -72 28 -336 98 -474 126 -12 3
-51 11 -85 19 -33 8 -77 16 -96 19 -19 2 -62 9 -95 15 -33 5 -85 13 -115 17
-30 4 -65 8 -78 9 -13 2 -53 6 -90 10 -37 3 -87 9 -112 12 -47 5 -646 13 -652
8z"/>
</g>
</svg>
